<svg width="273" height="52" viewBox="0 0 273 52" fill="none" xmlns="http://www.w3.org/2000/svg"><path fill-rule="evenodd" clip-rule="evenodd" d="M56.0312 4.60971C55.0827 4.61541 54.1321 4.77089 53.2097 5.07926C53.2001 5.08237 53.1911 5.08496 53.1816 5.08859L44.6217 7.97689C38.7175 4.49828 31.6364 3.74887 25.1319 5.92093C25.1086 5.9287 25.0842 5.93751 25.0609 5.94477C16.102 8.96834 9.82317 17.2368 9.43638 26.52C9.41799 26.9594 9.84609 27.2805 10.2628 27.1399L14.9877 25.5456C15.2091 25.4709 15.3698 25.2782 15.4037 25.0471C16.332 18.6724 20.7589 13.4135 26.9578 11.3213C26.9763 11.3156 26.9927 11.3099 27.0108 11.3037C32.8393 9.35705 39.0967 10.6229 43.6303 14.228C43.671 14.2603 43.7253 14.2701 43.7745 14.2536L55.0779 10.4651L55.0875 10.462C56.6914 9.92661 58.4425 10.7636 58.9957 12.3309C59.5494 13.9012 58.6942 15.6193 57.0898 16.1619L57.093 16.1712L6.28636 33.2968C4.044 34.054 2.23506 35.6223 1.19335 37.7145C0.152181 39.8063 0.00488028 42.1665 0.778475 44.3603C1.55207 46.5541 3.15595 48.3235 5.29447 49.3419C7.43298 50.3608 9.83907 50.509 12.0894 49.7482L20.6493 46.8594C26.5535 50.3385 33.6335 51.0884 40.138 48.9159C40.1613 48.9076 40.1857 48.8993 40.209 48.892C49.1689 45.8684 55.4478 37.5995 55.8346 28.3163C55.853 27.8769 55.4249 27.5558 55.0082 27.6964L50.2832 29.2912C50.0618 29.3659 49.9011 29.5585 49.8673 29.7897C48.9385 36.1639 44.5115 41.4233 38.3127 43.5145C38.2946 43.5207 38.2777 43.5269 38.2602 43.5331C32.4327 45.4782 26.1785 44.2144 21.6453 40.6123C21.6047 40.5801 21.5505 40.5703 21.5013 40.5868L10.1925 44.3712C10.1925 44.3712 10.1867 44.3732 10.1829 44.3743C8.57959 44.9096 6.82788 44.0732 6.27524 42.5059C5.721 40.9351 6.57673 39.216 8.18326 38.6733L58.9846 21.5399C62.6576 20.3003 64.9709 16.9284 64.9794 13.3249V13.2938C64.9778 12.3583 64.821 11.4083 64.4925 10.476C63.7184 8.28215 62.1145 6.51279 59.976 5.49439C58.7552 4.9129 57.4453 4.61645 56.1292 4.60971H56.0312Z" fill="url(#paint0_linear_897_2416)"></path><defs><linearGradient id="paint0_linear_897_2416" x1="28.8146" y1="-14.3065" x2="-5.74287" y2="39.4877" gradientUnits="userSpaceOnUse"><stop stop-color="#FEC4C4"></stop><stop offset="1" stop-color="#CB55EF"></stop></linearGradient></defs></svg>
