<svg width="385" height="236" fill="none" xmlns="http://www.w3.org/2000/svg"><g clip-path="url(#a)"><path d="M78.6501 46.0001c62.6499-61.31 164.2199-61.31 226.8699 0l7.54 7.38c.743.7206 1.334 1.5832 1.738 2.5366.404.9534.611 1.9781.611 3.0134 0 1.0353-.207 2.06-.611 3.0134-.404.9534-.995 1.816-1.738 2.5366l-25.79 25.25c-.761.735-1.777 1.1458-2.835 1.1458s-2.074-.4108-2.835-1.1458l-10.38-10.16c-43.7-42.77-114.57-42.77-158.27 0l-11.11 10.88c-.762.7356-1.78 1.1468-2.8399 1.1468-1.0595 0-2.0776-.4112-2.8401-1.1468l-25.7899-25.25c-.7434-.7206-1.3344-1.5832-1.7379-2.5366-.4036-.9534-.6116-1.9781-.6116-3.0134 0-1.0353.208-2.06.6116-3.0134.4035-.9534.9945-1.816 1.7379-2.5366l8.28-8.1Zm280.2099 52.21 23 22.4599c.742.722 1.332 1.586 1.735 2.54s.611 1.979.611 3.015-.208 2.061-.611 3.015c-.403.954-.993 1.818-1.735 2.54L278.31 233.06c-1.52 1.472-3.554 2.296-5.67 2.296s-4.15-.824-5.67-2.296l-73.47-71.9c-.186-.186-.406-.333-.649-.434-.243-.101-.503-.152-.766-.152s-.523.051-.766.152-.463.248-.649.434l-73.46 71.9c-1.522 1.473-3.557 2.297-5.675 2.297s-4.153-.824-5.675-2.297L2.35005 131.75c-.74331-.721-1.3343-1.583-1.737886-2.537-.403588-.953-.61155365-1.978-.61155365-3.013s.20796565-2.06.61155365-3.013c.403586-.954.994576-1.816 1.737886-2.537L25.3501 98.1901c1.5178-1.4771 3.5521-2.3035 5.67-2.3035 2.1178 0 4.1521.8264 5.67 2.3035L110.16 170.08c.186.186.406.334.649.434.243.101.503.153.766.153s.523-.052.766-.153c.243-.1.463-.248.649-.434l73.46-71.8899c1.52-1.4777 3.556-2.3044 5.675-2.3044 2.12 0 4.156.8267 5.675 2.3044l73.46 71.8899c.186.188.407.336.651.438.244.101.505.154.769.154s.525-.053.769-.154c.244-.102.465-.25.651-.438l73.46-71.8899c1.518-1.4771 3.552-2.3035 5.67-2.3035s4.152.8264 5.67 2.3035l-.04.02Z" fill="#3396FF"/></g><defs><clipPath id="a"><path fill="#fff" d="M0 0h384.17v235.35H0z"/></clipPath></defs></svg>