<svg width="1024" height="1024" viewBox="0 0 1024 1024" fill="none" xmlns="http://www.w3.org/2000/svg">
<rect width="1024" height="1024" fill="black"/>
<path fill-rule="evenodd" clip-rule="evenodd" d="M656.782 245.732C614.35 223.268 582.139 183.807 569.421 136.383C565.499 150.884 563.479 166.098 563.479 181.787C563.479 194.029 564.786 205.915 567.163 217.444C567.163 217.444 567.163 217.444 567.163 217.563C567.163 217.682 567.282 217.919 567.282 218.038C570.491 233.49 575.721 248.109 582.733 261.659C567.757 250.605 554.445 237.412 543.273 222.555C528.297 338.678 570.491 459.556 647.63 539.191C748.302 656.384 655.474 855.232 498.583 850.002C276.557 851.904 238.523 524.928 451.515 473.581L451.396 472.987C508.21 454.564 534.834 417.6 539.469 369.581C457.458 436.022 327.903 353.654 354.765 250.486C46.9248 402.029 161.266 893.623 510.231 887.561C662.249 887.561 790.853 787.008 833.047 648.777C883.442 487.607 801.906 315.858 656.782 245.732Z" fill="#12FE74"/>
</svg>
