<?xml version="1.0" encoding="UTF-8" standalone="no"?>


<svg
   version="1.1"
   id="svg839"
   width="20"
   height="20"
   viewBox="0 0 363.00104 308.43252"
   xmlns="http://www.w3.org/2000/svg"
   >
  <defs
     id="defs843">
    <clipPath
       clipPathUnits="userSpaceOnUse"
       id="clipPath865">
      <path
         d="m 287.388,423.305 c -3.766,-0.218 -7.566,-0.561 -11.414,-1.088 v 0 c -15.402,-2.168 -31.22,-6.834 -46.56,-13.246 v 0 c -11.406,-4.781 -22.579,-10.485 -33.293,-16.964 v 0 c -3.71,-2.239 -7.356,-4.57 -10.938,-6.985 v 0 C 171.224,375.62 158.26,364.869 147.006,353.236 v 0 c -2.822,-2.904 -5.523,-5.862 -8.094,-8.878 v 0 c -2.586,-3.001 -5.023,-6.064 -7.321,-9.154 v 0 c -4.561,-6.197 -8.518,-12.536 -11.721,-18.882 v 0 c -6.485,-12.676 -9.653,-25.331 -9.269,-36.543 v 0 l 0.933,0.283 c 0.929,5.882 2.479,11.865 4.891,17.869 v 0 c 2.401,6.005 5.454,12.005 9.185,17.878 v 0 c 3.72,5.865 8.057,11.608 12.879,17.122 v 0 c 2.385,2.755 4.876,5.482 7.494,8.12 v 0 c 2.601,2.663 5.3,5.255 8.097,7.776 v 0 c 22.406,20.156 49.726,36.211 76.639,45.882 v 0 c 13.453,4.822 26.848,8.023 39.241,9.018 v 0 c 3.103,0.268 6.121,0.368 9.09,0.378 v 0 c 2.953,-0.018 5.815,-0.191 8.613,-0.474 v 0 c 5.761,-0.619 11.252,-1.663 16.443,-3.097 v 0 c 10.403,-2.85 19.485,-7.365 26.891,-13.278 v 0 c 7.468,-5.864 13.186,-13.184 16.88,-21.559 v 0 c 7.539,-16.688 6.374,-37.868 -3.85,-59.109 v 0 c -1.276,-2.662 -2.672,-5.32 -4.189,-7.964 v 0 c -0.784,-1.323 -1.558,-2.646 -2.399,-3.947 v 0 c -0.843,-1.31 -1.607,-2.637 -2.535,-3.92 v 0 c -3.497,-5.207 -7.458,-10.289 -11.833,-15.199 v 0 c -8.786,-9.79 -19.165,-18.834 -30.522,-26.541 v 0 c -5.541,-3.749 -11.295,-7.189 -17.17,-10.259 v 0 c -6.174,-3.244 -12.487,-6.064 -18.82,-8.42 v 0 c -12.366,-4.579 -24.814,-7.429 -36.535,-8.273 v 0 c -5.852,-0.402 -11.557,-0.376 -16.984,0.177 v 0 c -5.332,0.513 -10.304,1.556 -14.847,3.166 v 0 c -9.082,3.188 -16.399,8.524 -21.365,15.53 v 0 c -4.978,6.99 -7.553,15.65 -7.503,25.205 v 0 c 0.074,9.57 2.873,20.025 8.079,30.478 v 0 c 2.646,5.295 5.682,10.338 9.482,15.28 v 0 c 2.248,2.938 4.669,5.82 7.298,8.62 v 0 c 1.776,1.899 3.634,3.751 5.593,5.542 v 0 c 4.729,4.39 9.895,8.508 15.399,12.172 v 0 c 0.188,0.126 0.283,0.199 0.283,0.199 v 0 c 2.775,1.894 5.685,3.597 8.588,5.272 v 0 c 2.949,1.593 5.908,3.185 8.929,4.53 v 0 c 12.059,5.549 24.61,8.867 36.177,9.547 v 0 c 5.781,0.356 11.396,-0.02 16.327,-0.963 v 0 c 4.938,-1.006 9.438,-2.678 13.215,-5.063 v 0 c 7.613,-4.722 12.552,-12.12 13.891,-21.096 v 0 c 1.352,-8.968 -0.818,-19.384 -6.269,-29.738 v 0 c -1.409,-2.614 -2.868,-5.118 -4.574,-7.591 v 0 c -1.725,-2.461 -3.626,-4.886 -5.705,-7.235 v 0 c -4.148,-4.689 -9.014,-9.091 -14.351,-12.952 v 0 c -1.74,-1.254 -3.528,-2.448 -5.352,-3.562 v 0 c -0.047,-0.031 -0.103,-0.061 -0.15,-0.092 v 0 c -9.345,-5.742 -19.641,-9.665 -29.149,-11.071 v 0 c -5.727,-0.898 -11.138,-0.879 -16.088,-0.135 v 0 c -4.74,0.772 -8.886,2.323 -12.16,4.679 v 0 c -6.634,4.618 -10.021,12.125 -9.523,20.856 v 0 c 0.229,4.37 1.458,9.05 3.634,13.816 v 0 c 1.117,2.429 2.387,4.714 3.908,6.971 v 0 c 1.513,2.267 3.274,4.496 5.253,6.651 v 0 c 1.465,1.563 3.035,3.096 4.715,4.565 v 0 c 1.945,1.723 4.026,3.367 6.226,4.887 v 0 c 1.055,0.738 2.135,1.449 3.249,2.125 v 0 c 5.354,3.327 11.207,5.881 17.084,7.532 v 0 c 2.939,0.832 5.872,1.378 8.758,1.68 v 0 c 2.876,0.313 5.761,0.36 8.354,0.118 v 0 c 5.26,-0.468 9.905,-2.231 13.383,-5.189 v 0 c 3.483,-2.938 5.753,-7.093 6.454,-12.066 v 0 c 0.709,-4.984 -0.28,-10.814 -2.882,-16.953 v 0 l 0.818,-0.092 c 2.297,3.028 4.176,6.213 5.699,9.448 v 0 c 1.458,3.227 2.467,6.493 3.025,9.695 v 0 c 0.525,3.198 0.546,6.315 0.062,9.256 v 0 c -0.542,2.903 -1.485,5.691 -3.04,8.122 v 0 c -3.029,4.908 -8.159,8.633 -14.802,10.55 v 0 c -3.36,0.946 -6.908,1.46 -10.718,1.629 v 0 c -3.815,0.149 -7.874,-0.112 -12.065,-0.775 v 0 c -8.378,-1.306 -17.276,-4.303 -25.839,-8.632 v 0 c -2.952,-1.511 -5.866,-3.183 -8.716,-5 v 0 c -5.396,-3.431 -10.55,-7.389 -15.186,-11.767 v 0 c -3.53,-3.334 -6.788,-6.885 -9.671,-10.552 v 0 c -2.887,-3.686 -5.343,-7.51 -7.385,-11.202 v 0 c -4.142,-7.474 -6.805,-15.151 -7.635,-22.378 v 0 c -0.83,-7.227 0.104,-13.991 2.766,-19.764 v 0 c 2.627,-5.796 7.007,-10.574 12.71,-14.038 v 0 c 5.742,-3.418 12.774,-5.536 20.548,-6.179 v 0 c 7.611,-0.591 15.84,-0.08 24.306,1.667 v 0 c 14.286,2.861 29.018,9.037 42.407,17.47 v 0 c 0.01,-0.001 0.012,0.009 0.012,0.009 v 0 c 2.484,1.564 4.911,3.201 7.291,4.907 v 0 c 1.894,1.366 3.768,2.788 5.59,4.25 v 0 c 0.012,0.007 0.012,0.007 0.013,0.017 v 0 c 5.472,4.374 10.559,9.121 15.081,14.154 v 0 c 3.014,3.354 5.784,6.809 8.282,10.339 v 0 c 2.498,3.519 4.653,7.117 6.563,10.61 v 0 c 7.624,14.143 10.853,28.589 9.181,41.007 v 0 c -1.606,12.445 -7.954,22.95 -18.33,29.822 v 0 c -3.543,2.38 -7.572,4.315 -11.958,5.792 v 0 c -1.997,0.674 -4.064,1.249 -6.2,1.737 v 0 c -6.922,1.493 -14.184,2.095 -21.965,1.781 v 0 c -8.625,-0.288 -17.735,-1.693 -26.978,-4.121 v 0 c -7.342,-1.941 -14.762,-4.529 -22.081,-7.74 v 0 c -4.147,-1.773 -8.228,-3.824 -12.292,-5.95 v 0 c -4.02,-2.206 -8.033,-4.485 -11.903,-7.017 v 0 c -7.805,-4.979 -15.203,-10.631 -22.039,-16.731 v 0 c -6.856,-6.096 -13.038,-12.705 -18.481,-19.542 v 0 c -5.471,-6.822 -10.023,-14 -13.692,-20.946 v 0 C 133.33,283.769 129.123,269.476 128.622,256.33 v 0 c -0.483,-13.15 2.616,-25.169 9.084,-35.014 v 0 c 6.564,-9.783 16.485,-17.351 28.923,-21.962 v 0 c 6.193,-2.328 13.052,-3.879 20.296,-4.682 v 0 c 7.102,-0.846 14.654,-0.966 22.459,-0.432 v 0 c 15.607,1.046 32.255,4.761 48.731,10.937 v 0 c 16.471,6.146 32.783,14.66 47.799,25.011 v 0 c 15.011,10.333 28.768,22.455 40.182,35.556 v 0 c 3.673,4.203 7.101,8.505 10.277,12.868 v 0 c 1.768,2.421 3.447,4.86 5.047,7.314 v 0 c 1.176,1.702 2.166,3.443 3.232,5.157 v 0 c 1.09,1.731 2.046,3.456 3.011,5.182 v 0 c 1.896,3.466 3.627,6.933 5.199,10.414 v 0 c 6.249,13.896 9.682,27.782 9.938,40.559 v 0 c 0.288,12.791 -2.452,24.462 -7.621,34.538 v 0 c -5.247,10.041 -12.923,18.486 -22.506,25.089 v 0 c -9.586,6.592 -21.131,11.281 -33.979,13.998 v 0 c -6.417,1.362 -13.224,2.149 -20.233,2.487 v 0 c -1.694,0.066 -3.403,0.101 -5.127,0.101 v 0 c -1.963,0 -3.945,-0.046 -5.946,-0.146"
         id="path863" />
    </clipPath>
    <linearGradient
       x1="0"
       y1="0"
       x2="1"
       y2="0"
       gradientUnits="userSpaceOnUse"
       gradientTransform="matrix(251.64334,-50.203575,-50.203575,-251.64334,119.86471,334.1091)"
       spreadMethod="pad"
       id="linearGradient883">
      <stop
         style="stop-opacity:1;stop-color:#392ec4"
         offset="0"
         id="stop871" />
      <stop
         style="stop-opacity:1;stop-color:#992ec4"
         offset="0.26060794"
         id="stop873" />
      <stop
         style="stop-opacity:1;stop-color:#992ec4"
         offset="0.306931"
         id="stop875" />
      <stop
         style="stop-opacity:1;stop-color:#006aae"
         offset="0.61377541"
         id="stop877" />
      <stop
         style="stop-opacity:1;stop-color:#006aae"
         offset="0.668317"
         id="stop879" />
      <stop
         style="stop-opacity:1;stop-color:#00eed0"
         offset="1"
         id="stop881" />
    </linearGradient>
    <clipPath
       clipPathUnits="userSpaceOnUse"
       id="clipPath893">
      <path
         d="M 0,500 H 500 V 0 H 0 Z"
         id="path891" />
    </clipPath>
    <clipPath
       clipPathUnits="userSpaceOnUse"
       id="clipPath901">
      <path
         d="m 241.267,379.921 h 85.862 V 264.598 h -85.862 z"
         id="path899" />
    </clipPath>
    <clipPath
       clipPathUnits="userSpaceOnUse"
       id="clipPath917">
      <path
         d="M 196.121,423.451 H 382.82 V 278.612 H 196.121 Z"
         id="path915" />
    </clipPath>
    <clipPath
       clipPathUnits="userSpaceOnUse"
       id="clipPath933">
      <path
         d="M 152.369,320.52 H 275.38 V 217.595 H 152.369 Z"
         id="path931" />
    </clipPath>
    <clipPath
       clipPathUnits="userSpaceOnUse"
       id="clipPath949">
      <path
         d="m 192.962,315.823 h 73.223 v -60.855 h -73.223 z"
         id="path947" />
    </clipPath>
    <clipPath
       clipPathUnits="userSpaceOnUse"
       id="clipPath965">
      <path
         d="m 233.584,305.762 c -9.265,-6.723 -13.785,-16.296 -10.095,-21.382 v 0 c 3.69,-5.087 14.193,-3.76 23.459,2.962 v 0 c 9.266,6.722 13.785,16.295 10.095,21.382 v 0 c -1.513,2.085 -4.17,3.093 -7.418,3.093 v 0 c -4.675,0 -10.573,-2.088 -16.041,-6.055"
         id="path963" />
    </clipPath>
    <radialGradient
       fx="0"
       fy="0"
       cx="0"
       cy="0"
       r="1"
       gradientUnits="userSpaceOnUse"
       gradientTransform="matrix(18.693048,15.00942,6.7262764,-8.3770466,246.74039,301.63147)"
       spreadMethod="pad"
       id="radialGradient979">
      <stop
         style="stop-opacity:1;stop-color:#ff31ca"
         offset="0"
         id="stop971" />
      <stop
         style="stop-opacity:1;stop-color:#ff31ca"
         offset="0.0049505"
         id="stop973" />
      <stop
         style="stop-opacity:1;stop-color:#7b10c7"
         offset="0.99151554"
         id="stop975" />
      <stop
         style="stop-opacity:1;stop-color:#7b10c7"
         offset="1"
         id="stop977" />
    </radialGradient>
    <clipPath
       clipPathUnits="userSpaceOnUse"
       id="clipPath989">
      <path
         d="M 0,500 H 500 V 0 H 0 Z"
         id="path987" />
    </clipPath>
    <clipPath
       clipPathUnits="userSpaceOnUse"
       id="clipPath1001">
      <path
         d="m 214.364,213.844 -11.971,2.388 8.281,-8.968 -5.971,-10.648 11.089,5.105 8.281,-8.97 -1.427,12.124 11.088,5.104 -11.971,2.389 -1.429,12.123 z"
         id="path999" />
    </clipPath>
    <linearGradient
       x1="0"
       y1="0"
       x2="1"
       y2="0"
       gradientUnits="userSpaceOnUse"
       gradientTransform="matrix(31.340782,-6.2525764,-6.2525764,-31.340782,201.69095,212.71365)"
       spreadMethod="pad"
       id="linearGradient1013">
      <stop
         style="stop-opacity:1;stop-color:#ff6e46"
         offset="0"
         id="stop1007" />
      <stop
         style="stop-opacity:1;stop-color:#ff6e46"
         offset="0.0940594"
         id="stop1009" />
      <stop
         style="stop-opacity:1;stop-color:#ffdc00"
         offset="1"
         id="stop1011" />
    </linearGradient>
    <clipPath
       clipPathUnits="userSpaceOnUse"
       id="clipPath1023">
      <path
         d="m 171.311,331.869 -5.223,1.042 3.612,-3.913 -2.604,-4.646 4.837,2.227 3.614,-3.913 -0.623,5.29 4.837,2.227 -5.222,1.042 -0.623,5.289 z"
         id="path1021" />
    </clipPath>
    <linearGradient
       x1="0"
       y1="0"
       x2="1"
       y2="0"
       gradientUnits="userSpaceOnUse"
       gradientTransform="matrix(13.674327,-2.7280676,-2.7280676,-13.674327,165.78142,331.37579)"
       spreadMethod="pad"
       id="linearGradient1035">
      <stop
         style="stop-opacity:1;stop-color:#ff6e46"
         offset="0"
         id="stop1029" />
      <stop
         style="stop-opacity:1;stop-color:#ff6e46"
         offset="0.0940594"
         id="stop1031" />
      <stop
         style="stop-opacity:1;stop-color:#ffdc00"
         offset="1"
         id="stop1033" />
    </linearGradient>
    <clipPath
       clipPathUnits="userSpaceOnUse"
       id="clipPath1045">
      <path
         d="M 0,500 H 500 V 0 H 0 Z"
         id="path1043" />
    </clipPath>
    <clipPath
       clipPathUnits="userSpaceOnUse"
       id="clipPath1097">
      <path
         d="m 270.505,368.325 h 94.013 V 223.022 h -94.013 z"
         id="path1095" />
    </clipPath>
    <clipPath
       clipPathUnits="userSpaceOnUse"
       id="clipPath1113">
      <path
         d="m 146.972,280.824 h 67.733 v -72.777 h -67.733 z"
         id="path1111" />
    </clipPath>
    <clipPath
       clipPathUnits="userSpaceOnUse"
       id="clipPath1129">
      <path
         d="m 206.022,365.596 h 102.32 v -34.909 h -102.32 z"
         id="path1127" />
    </clipPath>
    <clipPath
       clipPathUnits="userSpaceOnUse"
       id="clipPath1145">
      <path
         d="m 183.133,310.019 h 28.712 v -57.801 h -28.712 z"
         id="path1143" />
    </clipPath>
  </defs>
  <g
     id="g847"
     transform="matrix(1.3333333,0,0,-1.3333333,-159.42643,554.60132)">
    <g
       id="g859"
       transform="translate(9,-7.5)">
      <g
         id="g861"
         clip-path="url(#clipPath865)">
        <g
           id="g867">
          <g
             id="g869">
            <path
               d="m 287.388,423.305 c -3.766,-0.218 -7.566,-0.561 -11.414,-1.088 v 0 c -15.402,-2.168 -31.22,-6.834 -46.56,-13.246 v 0 c -11.406,-4.781 -22.579,-10.485 -33.293,-16.964 v 0 c -3.71,-2.239 -7.356,-4.57 -10.938,-6.985 v 0 C 171.224,375.62 158.26,364.869 147.006,353.236 v 0 c -2.822,-2.904 -5.523,-5.862 -8.094,-8.878 v 0 c -2.586,-3.001 -5.023,-6.064 -7.321,-9.154 v 0 c -4.561,-6.197 -8.518,-12.536 -11.721,-18.882 v 0 c -6.485,-12.676 -9.653,-25.331 -9.269,-36.543 v 0 l 0.933,0.283 c 0.929,5.882 2.479,11.865 4.891,17.869 v 0 c 2.401,6.005 5.454,12.005 9.185,17.878 v 0 c 3.72,5.865 8.057,11.608 12.879,17.122 v 0 c 2.385,2.755 4.876,5.482 7.494,8.12 v 0 c 2.601,2.663 5.3,5.255 8.097,7.776 v 0 c 22.406,20.156 49.726,36.211 76.639,45.882 v 0 c 13.453,4.822 26.848,8.023 39.241,9.018 v 0 c 3.103,0.268 6.121,0.368 9.09,0.378 v 0 c 2.953,-0.018 5.815,-0.191 8.613,-0.474 v 0 c 5.761,-0.619 11.252,-1.663 16.443,-3.097 v 0 c 10.403,-2.85 19.485,-7.365 26.891,-13.278 v 0 c 7.468,-5.864 13.186,-13.184 16.88,-21.559 v 0 c 7.539,-16.688 6.374,-37.868 -3.85,-59.109 v 0 c -1.276,-2.662 -2.672,-5.32 -4.189,-7.964 v 0 c -0.784,-1.323 -1.558,-2.646 -2.399,-3.947 v 0 c -0.843,-1.31 -1.607,-2.637 -2.535,-3.92 v 0 c -3.497,-5.207 -7.458,-10.289 -11.833,-15.199 v 0 c -8.786,-9.79 -19.165,-18.834 -30.522,-26.541 v 0 c -5.541,-3.749 -11.295,-7.189 -17.17,-10.259 v 0 c -6.174,-3.244 -12.487,-6.064 -18.82,-8.42 v 0 c -12.366,-4.579 -24.814,-7.429 -36.535,-8.273 v 0 c -5.852,-0.402 -11.557,-0.376 -16.984,0.177 v 0 c -5.332,0.513 -10.304,1.556 -14.847,3.166 v 0 c -9.082,3.188 -16.399,8.524 -21.365,15.53 v 0 c -4.978,6.99 -7.553,15.65 -7.503,25.205 v 0 c 0.074,9.57 2.873,20.025 8.079,30.478 v 0 c 2.646,5.295 5.682,10.338 9.482,15.28 v 0 c 2.248,2.938 4.669,5.82 7.298,8.62 v 0 c 1.776,1.899 3.634,3.751 5.593,5.542 v 0 c 4.729,4.39 9.895,8.508 15.399,12.172 v 0 c 0.188,0.126 0.283,0.199 0.283,0.199 v 0 c 2.775,1.894 5.685,3.597 8.588,5.272 v 0 c 2.949,1.593 5.908,3.185 8.929,4.53 v 0 c 12.059,5.549 24.61,8.867 36.177,9.547 v 0 c 5.781,0.356 11.396,-0.02 16.327,-0.963 v 0 c 4.938,-1.006 9.438,-2.678 13.215,-5.063 v 0 c 7.613,-4.722 12.552,-12.12 13.891,-21.096 v 0 c 1.352,-8.968 -0.818,-19.384 -6.269,-29.738 v 0 c -1.409,-2.614 -2.868,-5.118 -4.574,-7.591 v 0 c -1.725,-2.461 -3.626,-4.886 -5.705,-7.235 v 0 c -4.148,-4.689 -9.014,-9.091 -14.351,-12.952 v 0 c -1.74,-1.254 -3.528,-2.448 -5.352,-3.562 v 0 c -0.047,-0.031 -0.103,-0.061 -0.15,-0.092 v 0 c -9.345,-5.742 -19.641,-9.665 -29.149,-11.071 v 0 c -5.727,-0.898 -11.138,-0.879 -16.088,-0.135 v 0 c -4.74,0.772 -8.886,2.323 -12.16,4.679 v 0 c -6.634,4.618 -10.021,12.125 -9.523,20.856 v 0 c 0.229,4.37 1.458,9.05 3.634,13.816 v 0 c 1.117,2.429 2.387,4.714 3.908,6.971 v 0 c 1.513,2.267 3.274,4.496 5.253,6.651 v 0 c 1.465,1.563 3.035,3.096 4.715,4.565 v 0 c 1.945,1.723 4.026,3.367 6.226,4.887 v 0 c 1.055,0.738 2.135,1.449 3.249,2.125 v 0 c 5.354,3.327 11.207,5.881 17.084,7.532 v 0 c 2.939,0.832 5.872,1.378 8.758,1.68 v 0 c 2.876,0.313 5.761,0.36 8.354,0.118 v 0 c 5.26,-0.468 9.905,-2.231 13.383,-5.189 v 0 c 3.483,-2.938 5.753,-7.093 6.454,-12.066 v 0 c 0.709,-4.984 -0.28,-10.814 -2.882,-16.953 v 0 l 0.818,-0.092 c 2.297,3.028 4.176,6.213 5.699,9.448 v 0 c 1.458,3.227 2.467,6.493 3.025,9.695 v 0 c 0.525,3.198 0.546,6.315 0.062,9.256 v 0 c -0.542,2.903 -1.485,5.691 -3.04,8.122 v 0 c -3.029,4.908 -8.159,8.633 -14.802,10.55 v 0 c -3.36,0.946 -6.908,1.46 -10.718,1.629 v 0 c -3.815,0.149 -7.874,-0.112 -12.065,-0.775 v 0 c -8.378,-1.306 -17.276,-4.303 -25.839,-8.632 v 0 c -2.952,-1.511 -5.866,-3.183 -8.716,-5 v 0 c -5.396,-3.431 -10.55,-7.389 -15.186,-11.767 v 0 c -3.53,-3.334 -6.788,-6.885 -9.671,-10.552 v 0 c -2.887,-3.686 -5.343,-7.51 -7.385,-11.202 v 0 c -4.142,-7.474 -6.805,-15.151 -7.635,-22.378 v 0 c -0.83,-7.227 0.104,-13.991 2.766,-19.764 v 0 c 2.627,-5.796 7.007,-10.574 12.71,-14.038 v 0 c 5.742,-3.418 12.774,-5.536 20.548,-6.179 v 0 c 7.611,-0.591 15.84,-0.08 24.306,1.667 v 0 c 14.286,2.861 29.018,9.037 42.407,17.47 v 0 c 0.01,-0.001 0.012,0.009 0.012,0.009 v 0 c 2.484,1.564 4.911,3.201 7.291,4.907 v 0 c 1.894,1.366 3.768,2.788 5.59,4.25 v 0 c 0.012,0.007 0.012,0.007 0.013,0.017 v 0 c 5.472,4.374 10.559,9.121 15.081,14.154 v 0 c 3.014,3.354 5.784,6.809 8.282,10.339 v 0 c 2.498,3.519 4.653,7.117 6.563,10.61 v 0 c 7.624,14.143 10.853,28.589 9.181,41.007 v 0 c -1.606,12.445 -7.954,22.95 -18.33,29.822 v 0 c -3.543,2.38 -7.572,4.315 -11.958,5.792 v 0 c -1.997,0.674 -4.064,1.249 -6.2,1.737 v 0 c -6.922,1.493 -14.184,2.095 -21.965,1.781 v 0 c -8.625,-0.288 -17.735,-1.693 -26.978,-4.121 v 0 c -7.342,-1.941 -14.762,-4.529 -22.081,-7.74 v 0 c -4.147,-1.773 -8.228,-3.824 -12.292,-5.95 v 0 c -4.02,-2.206 -8.033,-4.485 -11.903,-7.017 v 0 c -7.805,-4.979 -15.203,-10.631 -22.039,-16.731 v 0 c -6.856,-6.096 -13.038,-12.705 -18.481,-19.542 v 0 c -5.471,-6.822 -10.023,-14 -13.692,-20.946 v 0 C 133.33,283.769 129.123,269.476 128.622,256.33 v 0 c -0.483,-13.15 2.616,-25.169 9.084,-35.014 v 0 c 6.564,-9.783 16.485,-17.351 28.923,-21.962 v 0 c 6.193,-2.328 13.052,-3.879 20.296,-4.682 v 0 c 7.102,-0.846 14.654,-0.966 22.459,-0.432 v 0 c 15.607,1.046 32.255,4.761 48.731,10.937 v 0 c 16.471,6.146 32.783,14.66 47.799,25.011 v 0 c 15.011,10.333 28.768,22.455 40.182,35.556 v 0 c 3.673,4.203 7.101,8.505 10.277,12.868 v 0 c 1.768,2.421 3.447,4.86 5.047,7.314 v 0 c 1.176,1.702 2.166,3.443 3.232,5.157 v 0 c 1.09,1.731 2.046,3.456 3.011,5.182 v 0 c 1.896,3.466 3.627,6.933 5.199,10.414 v 0 c 6.249,13.896 9.682,27.782 9.938,40.559 v 0 c 0.288,12.791 -2.452,24.462 -7.621,34.538 v 0 c -5.247,10.041 -12.923,18.486 -22.506,25.089 v 0 c -9.586,6.592 -21.131,11.281 -33.979,13.998 v 0 c -6.417,1.362 -13.224,2.149 -20.233,2.487 v 0 c -1.694,0.066 -3.403,0.101 -5.127,0.101 v 0 c -1.963,0 -3.945,-0.046 -5.946,-0.146"
               style="fill:url(#linearGradient883);stroke:none"
               id="path885" />
          </g>
        </g>
      </g>
    </g>
    <g
       id="g887"
       transform="translate(9,-7.5)">
      <g
         id="g889"
         clip-path="url(#clipPath893)">
        <g
           id="g895">
          <g
             id="g897" />
          <g
             id="g909">
            <g
               clip-path="url(#clipPath901)"
               opacity="0.330002"
               id="g907">
              <g
                 transform="translate(317.5172,299.7014)"
                 id="g905">
                <path
                   d="m 0,0 c -1.91,-3.494 -4.065,-7.091 -6.562,-10.611 -2.5,-3.529 -5.269,-6.984 -8.284,-10.339 -4.521,-5.032 -9.608,-9.779 -15.08,-14.153 15.351,19.544 45.709,65.605 18.824,95.635 -15.703,17.531 -41.508,19.08 -65.148,15.486 9.243,2.428 18.354,3.833 26.978,4.121 7.781,0.314 15.043,-0.289 21.965,-1.782 2.136,-0.487 4.203,-1.063 6.2,-1.736 4.386,-1.477 8.415,-3.413 11.958,-5.792 C 1.227,63.956 7.574,53.451 9.181,41.007 10.854,28.589 7.624,14.142 0,0"
                   style="fill:#000daf;fill-opacity:1;fill-rule:nonzero;stroke:none"
                   id="path903" />
              </g>
            </g>
          </g>
        </g>
        <g
           id="g911">
          <g
             id="g913" />
          <g
             id="g925">
            <g
               clip-path="url(#clipPath917)"
               opacity="0.330002"
               id="g923">
              <g
                 transform="translate(372.8619,306.6784)"
                 id="g921">
                <path
                   d="m 0,0 c -1.571,-3.48 -3.303,-6.948 -5.198,-10.414 -0.966,-1.725 -1.922,-3.451 -3.012,-5.181 -1.065,-1.715 -2.056,-3.455 -3.231,-5.157 -1.601,-2.455 -3.281,-4.894 -5.048,-7.314 16.375,28.721 27.856,69.197 -2.24,106.945 -43.266,54.284 -125.668,22.134 -158.012,6.449 10.714,6.479 21.887,12.183 33.292,16.964 15.341,6.413 31.16,11.078 46.561,13.247 3.848,0.527 7.649,0.87 11.414,1.087 3.759,0.189 7.451,0.187 11.073,0.045 7.009,-0.338 13.817,-1.125 20.234,-2.486 12.847,-2.717 24.393,-7.406 33.979,-13.999 C -10.605,93.583 -2.93,85.139 2.317,75.098 7.486,65.022 10.226,53.351 9.938,40.56 9.683,27.783 6.25,13.896 0,0"
                   style="fill:#000daf;fill-opacity:1;fill-rule:nonzero;stroke:none"
                   id="path919" />
              </g>
            </g>
          </g>
        </g>
        <g
           id="g927">
          <g
             id="g929" />
          <g
             id="g941">
            <g
               clip-path="url(#clipPath933)"
               opacity="0.330002"
               id="g939">
              <g
                 transform="translate(275.3795,238.7585)"
                 id="g937">
                <path
                   d="m 0,0 c -0.347,-0.309 -0.747,-0.575 -1.184,-0.825 -22.427,-12.595 -93.545,-41.082 -117.091,4.863 -14.774,28.837 8.038,59.15 27.079,77.724 -2.628,-2.8 -5.049,-5.682 -7.297,-8.619 -3.8,-4.942 -6.836,-9.986 -9.483,-15.28 -5.206,-10.453 -8.005,-20.908 -8.079,-30.478 -0.05,-9.555 2.525,-18.216 7.504,-25.205 4.965,-7.007 12.282,-12.342 21.364,-15.531 4.543,-1.61 9.515,-2.653 14.848,-3.166 5.426,-0.552 11.131,-0.579 16.984,-0.176 11.721,0.843 24.169,3.693 36.534,8.272 C -12.487,-6.064 -6.174,-3.245 0,0"
                   style="fill:#000daf;fill-opacity:1;fill-rule:nonzero;stroke:none"
                   id="path935" />
              </g>
            </g>
          </g>
        </g>
        <g
           id="g943">
          <g
             id="g945" />
          <g
             id="g957">
            <g
               clip-path="url(#clipPath949)"
               opacity="0.330002"
               id="g955">
              <g
                 transform="translate(266.1852,269.4909)"
                 id="g953">
                <path
                   d="m 0,0 c -0.339,-0.779 -0.903,-1.411 -1.722,-1.88 -12.855,-7.397 -55.658,-25.881 -69.075,3.115 -8.893,19.211 8.583,35.966 21.386,45.098 -1.679,-1.47 -3.25,-3.003 -4.714,-4.566 -1.979,-2.155 -3.74,-4.384 -5.252,-6.651 -1.521,-2.257 -2.793,-4.542 -3.91,-6.97 -2.174,-4.767 -3.404,-9.447 -3.633,-13.816 -0.498,-8.732 2.889,-16.239 9.524,-20.857 3.272,-2.355 7.418,-3.907 12.159,-4.679 4.95,-0.743 10.361,-0.762 16.087,0.135 C -19.641,-9.664 -9.345,-5.743 0,0"
                   style="fill:#000daf;fill-opacity:1;fill-rule:nonzero;stroke:none"
                   id="path951" />
              </g>
            </g>
          </g>
        </g>
      </g>
    </g>
    <g
       id="g959"
       transform="translate(9,-7.5)">
      <g
         id="g961"
         clip-path="url(#clipPath965)">
        <g
           id="g967">
          <g
             id="g969">
            <path
               d="m 233.584,305.762 c -9.265,-6.723 -13.785,-16.296 -10.095,-21.382 v 0 c 3.69,-5.087 14.193,-3.76 23.459,2.962 v 0 c 9.266,6.722 13.785,16.295 10.095,21.382 v 0 c -1.513,2.085 -4.17,3.093 -7.418,3.093 v 0 c -4.675,0 -10.573,-2.088 -16.041,-6.055"
               style="fill:url(#radialGradient979);stroke:none"
               id="path981" />
          </g>
        </g>
      </g>
    </g>
    <g
       id="g983"
       transform="translate(9,-7.5)">
      <g
         id="g985"
         clip-path="url(#clipPath989)">
        <g
           id="g991"
           transform="translate(339.361,349.9133)">
          <path
             d="m 0,0 0.562,-4.776 4.717,-0.941 -4.369,-2.012 0.563,-4.776 -3.263,3.534 -4.368,-2.011 2.351,4.195 -3.262,3.533 4.716,-0.941 z"
             style="fill:#fdfdfd;fill-opacity:1;fill-rule:nonzero;stroke:none"
             id="path993" />
        </g>
      </g>
    </g>
    <g
       id="g995"
       transform="translate(9,-7.5)">
      <g
         id="g997"
         clip-path="url(#clipPath1001)">
        <g
           id="g1003">
          <g
             id="g1005">
            <path
               d="m 214.364,213.844 -11.971,2.388 8.281,-8.968 -5.971,-10.648 11.089,5.105 8.281,-8.97 -1.427,12.124 11.088,5.104 -11.971,2.389 -1.429,12.123 z"
               style="fill:url(#linearGradient1013);stroke:none"
               id="path1015" />
          </g>
        </g>
      </g>
    </g>
    <g
       id="g1017"
       transform="translate(9,-7.5)">
      <g
         id="g1019"
         clip-path="url(#clipPath1023)">
        <g
           id="g1025">
          <g
             id="g1027">
            <path
               d="m 171.311,331.869 -5.223,1.042 3.612,-3.913 -2.604,-4.646 4.837,2.227 3.614,-3.913 -0.623,5.29 4.837,2.227 -5.222,1.042 -0.623,5.289 z"
               style="fill:url(#linearGradient1035);stroke:none"
               id="path1037" />
          </g>
        </g>
      </g>
    </g>
    <g
       id="g1039"
       transform="translate(9,-7.5)">
      <g
         id="g1041"
         clip-path="url(#clipPath1045)">
        <g
           id="g1047"
           transform="translate(333.6852,365.3049)">
          <path
             d="m 0,0 0.253,-2.145 2.118,-0.423 -1.962,-0.903 0.253,-2.145 -1.466,1.587 -1.962,-0.903 1.057,1.884 -1.465,1.587 2.118,-0.423 z"
             style="fill:#fdfdfd;fill-opacity:1;fill-rule:nonzero;stroke:none"
             id="path1049" />
        </g>
        <g
           id="g1051"
           transform="translate(349.0084,339.8205)">
          <path
             d="m 0,0 0.337,-2.861 2.825,-0.563 -2.616,-1.205 0.337,-2.861 -1.954,2.117 -2.617,-1.205 1.409,2.513 -1.954,2.116 2.825,-0.564 z"
             style="fill:#fdfdfd;fill-opacity:1;fill-rule:nonzero;stroke:none"
             id="path1053" />
        </g>
        <g
           id="g1055"
           transform="translate(278.9244,410.7648)">
          <path
             d="m 0,0 c -0.447,-2.241 -2.627,-3.696 -4.868,-3.249 -2.241,0.448 -3.695,2.627 -3.248,4.868 0.447,2.242 2.626,3.696 4.867,3.249 C -1.007,4.421 0.447,2.241 0,0"
             style="fill:#fdfdfd;fill-opacity:1;fill-rule:nonzero;stroke:none"
             id="path1057" />
        </g>
        <g
           id="g1059"
           transform="translate(262.3805,416.4059)">
          <path
             d="m 0,0 c -0.199,-0.998 -1.17,-1.646 -2.168,-1.446 -0.998,0.198 -1.645,1.169 -1.446,2.167 0.199,0.998 1.17,1.646 2.168,1.447 C -0.448,1.969 0.199,0.998 0,0"
             style="fill:#fdfdfd;fill-opacity:1;fill-rule:nonzero;stroke:none"
             id="path1061" />
        </g>
        <g
           id="g1063"
           transform="translate(259.6774,402.8547)">
          <path
             d="m 0,0 c -0.199,-0.998 -1.17,-1.646 -2.168,-1.447 -0.998,0.199 -1.645,1.17 -1.447,2.168 0.199,0.998 1.17,1.646 2.168,1.447 C -0.449,1.969 0.198,0.998 0,0"
             style="fill:#fdfdfd;fill-opacity:1;fill-rule:nonzero;stroke:none"
             id="path1065" />
        </g>
        <g
           id="g1067"
           transform="translate(288.4313,322.3488)">
          <path
             d="m 0,0 c -0.142,-0.71 -0.832,-1.17 -1.541,-1.029 -0.71,0.142 -1.171,0.832 -1.029,1.542 0.141,0.709 0.832,1.17 1.542,1.028 C -0.318,1.399 0.142,0.709 0,0"
             style="fill:#fdfdfd;fill-opacity:1;fill-rule:nonzero;stroke:none"
             id="path1069" />
        </g>
        <g
           id="g1071"
           transform="translate(298.483,313.9987)">
          <path
             d="m 0,0 c -0.248,-1.241 -1.454,-2.046 -2.695,-1.798 -1.241,0.247 -2.046,1.454 -1.798,2.694 0.247,1.241 1.454,2.046 2.694,1.799 C -0.558,2.447 0.247,1.241 0,0"
             style="fill:#fdfdfd;fill-opacity:1;fill-rule:nonzero;stroke:none"
             id="path1073" />
        </g>
        <g
           id="g1075"
           transform="translate(290.0494,309.9645)">
          <path
             d="m 0,0 c -0.358,-1.795 -2.104,-2.961 -3.899,-2.603 -1.796,0.359 -2.961,2.104 -2.603,3.9 0.357,1.796 2.104,2.961 3.899,2.603 C -0.807,3.542 0.358,1.795 0,0"
             style="fill:#fdfdfd;fill-opacity:1;fill-rule:nonzero;stroke:none"
             id="path1077" />
        </g>
        <g
           id="g1079"
           transform="translate(245.0836,203.0163)">
          <path
             d="m 0,0 c -0.11,-0.553 -0.647,-0.912 -1.201,-0.802 -0.552,0.111 -0.911,0.649 -0.801,1.201 0.11,0.553 0.648,0.912 1.201,0.801 C -0.249,1.09 0.11,0.553 0,0"
             style="fill:#fdfdfd;fill-opacity:1;fill-rule:nonzero;stroke:none"
             id="path1081" />
        </g>
        <g
           id="g1083"
           transform="translate(265.2721,202.7136)">
          <path
             d="m 0,0 c -0.334,-1.672 -1.959,-2.757 -3.632,-2.424 -1.672,0.334 -2.757,1.96 -2.423,3.632 0.333,1.672 1.959,2.757 3.631,2.424 C -0.751,3.298 0.334,1.672 0,0"
             style="fill:#fdfdfd;fill-opacity:1;fill-rule:nonzero;stroke:none"
             id="path1085" />
        </g>
        <g
           id="g1087"
           transform="translate(255.5797,194.3229)">
          <path
             d="m 0,0 c -0.295,-1.479 -1.732,-2.438 -3.21,-2.143 -1.478,0.295 -2.437,1.733 -2.143,3.211 0.295,1.478 1.733,2.437 3.21,2.142 C -0.664,2.916 0.295,1.479 0,0"
             style="fill:#fdfdfd;fill-opacity:1;fill-rule:nonzero;stroke:none"
             id="path1089" />
        </g>
        <g
           id="g1091">
          <g
             id="g1093" />
          <g
             id="g1105">
            <g
               clip-path="url(#clipPath1097)"
               opacity="0.529999"
               id="g1103">
              <g
                 transform="translate(358.5231,368.3254)"
                 id="g1101">
                <path
                   d="m 0,0 c 1.845,-3.419 3.094,-7.148 4.007,-10.934 0.98,-3.783 1.457,-7.672 1.817,-11.571 0.543,-7.818 -0.233,-15.712 -1.97,-23.354 l -0.629,-2.877 c -0.196,-0.963 -0.543,-1.883 -0.808,-2.827 l -1.738,-5.625 -2.174,-5.465 -1.089,-2.734 c -0.408,-0.89 -0.855,-1.762 -1.281,-2.644 l -2.61,-5.269 c -0.411,-0.892 -0.927,-1.724 -1.428,-2.565 l -1.5,-2.524 -3.004,-5.048 -3.319,-4.832 c -1.133,-1.591 -2.187,-3.241 -3.392,-4.779 l -3.626,-4.608 -1.814,-2.302 c -0.604,-0.769 -1.282,-1.475 -1.92,-2.215 l -3.889,-4.386 -0.981,-1.089 -1.035,-1.038 -2.071,-2.074 c -1.4,-1.364 -2.719,-2.807 -4.183,-4.102 l -4.354,-3.921 c -1.427,-1.334 -3.008,-2.491 -4.512,-3.734 -2.998,-2.501 -6.195,-4.748 -9.366,-7.016 l -4.896,-3.202 c -1.646,-1.041 -3.34,-2.01 -5.011,-3.009 -6.789,-3.802 -13.815,-7.268 -21.242,-9.559 1.806,0.709 3.581,1.481 5.319,2.338 1.76,0.8 3.467,1.715 5.189,2.589 1.689,0.943 3.392,1.853 5.05,2.843 1.642,1.021 3.321,1.97 4.925,3.044 6.524,4.12 12.697,8.77 18.545,13.771 11.757,9.942 22.065,21.521 30.81,34.156 l 3.294,4.733 2.971,4.928 1.486,2.464 c 0.496,0.822 1.009,1.634 1.414,2.503 l 2.604,5.125 c 0.432,0.855 0.888,1.701 1.302,2.564 l 1.109,2.649 2.222,5.3 1.801,5.452 c 0.286,0.912 0.657,1.803 0.873,2.735 l 0.696,2.785 c 1.887,7.41 2.962,15.072 2.776,22.755 -0.134,3.832 -0.38,7.687 -1.133,11.468 C 3.065,-10.152 2.905,-9.2 2.652,-8.27 2.407,-7.338 2.224,-6.386 1.929,-5.468 1.395,-3.613 0.806,-1.765 0,0"
                   style="fill:#76ffff;fill-opacity:1;fill-rule:nonzero;stroke:none"
                   id="path1099" />
              </g>
            </g>
          </g>
        </g>
        <g
           id="g1107">
          <g
             id="g1109" />
          <g
             id="g1121">
            <g
               clip-path="url(#clipPath1113)"
               opacity="0.529999"
               id="g1119">
              <g
                 transform="translate(151.8888,280.8239)"
                 id="g1117">
                <path
                   d="m 0,0 c -1.315,-4.762 -2.162,-9.621 -2.595,-14.491 -0.435,-4.868 -0.415,-9.761 0.17,-14.559 1.133,-9.584 4.981,-18.814 11.66,-25.647 6.666,-6.873 15.241,-11.905 24.558,-14.435 4.659,-1.284 9.5,-1.973 14.375,-2.131 4.877,-0.167 9.803,0.159 14.648,1.124 -4.687,-1.611 -9.659,-2.348 -14.641,-2.591 -4.987,-0.19 -10.036,0.194 -14.947,1.334 -2.456,0.554 -4.892,1.251 -7.242,2.186 -2.354,0.917 -4.669,1.96 -6.872,3.212 -1.128,0.581 -2.169,1.308 -3.249,1.971 -1.03,0.735 -2.099,1.422 -3.083,2.219 l -1.494,1.173 c -0.49,0.403 -0.958,0.829 -1.437,1.242 -0.972,0.807 -1.863,1.73 -2.772,2.625 -0.883,0.921 -1.707,1.903 -2.519,2.887 -0.763,1.026 -1.567,2.022 -2.235,3.113 -1.426,2.122 -2.608,4.4 -3.597,6.747 -1.947,4.711 -3.096,9.712 -3.466,14.736 -0.408,5.024 -0.094,10.058 0.694,14.978 C -3.195,-9.398 -1.942,-4.556 0,0"
                   style="fill:#76ffff;fill-opacity:1;fill-rule:nonzero;stroke:none"
                   id="path1115" />
              </g>
            </g>
          </g>
        </g>
        <g
           id="g1123">
          <g
             id="g1125" />
          <g
             id="g1137">
            <g
               clip-path="url(#clipPath1129)"
               opacity="0.529999"
               id="g1135">
              <g
                 transform="translate(206.0216,348.9665)"
                 id="g1133">
                <path
                   d="m 0,0 c 3.832,3.381 8.347,5.925 12.968,8.128 4.66,2.148 9.52,3.882 14.498,5.182 9.966,2.575 20.314,3.522 30.581,3.284 5.144,-0.098 10.364,-0.689 15.411,-2.009 2.506,-0.733 5.002,-1.534 7.373,-2.66 2.383,-1.081 4.684,-2.372 6.79,-3.938 8.567,-6.091 14.098,-16.081 14.7,-26.267 -1.863,10.005 -7.773,18.971 -16.03,24.348 -4.117,2.711 -8.745,4.589 -13.541,5.775 -4.814,1.168 -9.766,1.716 -14.781,1.763 -2.512,0.014 -5.029,0.173 -7.538,0.017 L 46.666,13.485 C 45.408,13.458 44.164,13.277 42.91,13.199 37.89,12.888 32.938,11.999 28.005,11.048 23.097,9.97 18.25,8.58 13.539,6.784 8.834,4.986 4.221,2.847 0,0"
                   style="fill:#76ffff;fill-opacity:1;fill-rule:nonzero;stroke:none"
                   id="path1131" />
              </g>
            </g>
          </g>
        </g>
        <g
           id="g1139">
          <g
             id="g1141" />
          <g
             id="g1153">
            <g
               clip-path="url(#clipPath1145)"
               opacity="0.529999"
               id="g1151">
              <g
                 transform="translate(201.963,310.0187)"
                 id="g1149">
                <path
                   d="m 0,0 c -2.545,-2.089 -4.86,-4.4 -6.93,-6.887 -2.088,-2.468 -3.895,-5.143 -5.359,-7.961 -2.908,-5.634 -4.254,-11.998 -3.333,-18.197 0.706,-6.219 3.659,-12.032 8.378,-16.219 2.346,-2.098 5.047,-3.851 7.946,-5.254 2.896,-1.42 5.978,-2.522 9.18,-3.282 -3.304,0.103 -6.583,0.84 -9.747,1.927 -3.147,1.134 -6.192,2.7 -8.88,4.822 -2.709,2.092 -4.984,4.781 -6.691,7.8 -1.661,3.047 -2.705,6.41 -3.149,9.817 -0.247,1.703 -0.264,3.433 -0.234,5.153 0.112,1.717 0.259,3.441 0.666,5.115 0.766,3.351 2.058,6.567 3.836,9.454 1.744,2.909 3.913,5.516 6.322,7.825 2.434,2.28 5.074,4.34 7.995,5.887"
                   style="fill:#76ffff;fill-opacity:1;fill-rule:nonzero;stroke:none"
                   id="path1147" />
              </g>
            </g>
          </g>
        </g>
      </g>
    </g>
  </g>
</svg>
